<?xml version="1.0" encoding="utf-8"?>
<!-- Generator: Adobe Illustrator 16.0.4, SVG Export Plug-In . SVG Version: 6.00 Build 0)  -->
<!DOCTYPE svg PUBLIC "-//W3C//DTD SVG 1.1//EN" "http://www.w3.org/Graphics/SVG/1.1/DTD/svg11.dtd">
<svg version="1.1" id="Layer_1" xmlns="http://www.w3.org/2000/svg" xmlns:xlink="http://www.w3.org/1999/xlink" x="0px" y="0px"
	 width="334.797px" height="96.194px" viewBox="2 2 334.797 96.194" enable-background="new 2 2 334.797 96.194"
	 xml:space="preserve">
<path fill="#FFFFFF" d="M50.096,2C23.576,2,2,23.577,2,50.098c0,26.521,21.576,48.096,48.096,48.096
	c26.521,0,48.098-21.575,48.098-48.096C98.193,23.577,76.617,2,50.096,2z M49.835,93.205c-23.807,0-43.107-19.3-43.107-43.106
	c0-23.808,19.3-43.107,43.107-43.107c23.808,0,43.107,19.3,43.107,43.107C92.942,73.905,73.643,93.205,49.835,93.205z"/>
<g id="XMLID_1_">
	<g>
		<path fill="#FFFFFF" d="M51.498,21.447c0,0,15.227,5.807,21.041,23.87c6.003,18.65-6.591,33.289-6.591,33.289
			s14.51-12.624,8.507-33.621C68.783,25.143,51.498,21.447,51.498,21.447z M52.418,44.027c0,0,2.7,2.934,8.816,2.934
			c6.116,0,8.854-3.56,8.854-3.56s-1.697-6.426-7.647-12.061c-6.577-6.267-10.25-6.727-10.25-6.727L52.418,44.027z M62.207,48.975
			c-5.996,0.46-9.676-2.112-9.676-2.112V58.07c0,0,3.514-2.836,8.816-3.334c5.317-0.46,10.837,2.646,10.837,2.646
			s0.113-2.874-0.121-6.268c-0.226-3.394-1.29-5.573-1.29-5.573S68.203,48.477,62.207,48.975z M52.531,83.682
			c0,0,7.089,0.46,14.133-9.429c5.4-7.587,5.053-14.668,5.053-14.668s-3.975-3.62-10.845-2.896
			c-6.116,0.626-8.341,4.313-8.341,4.313V83.682z M37.455,77.784c6.622,6.629,12.972,5.897,12.972,5.897l-0.581-60.123
			c0,0-0.973-0.688-2.368,0.226c-1.403,0.958-3.167,1.357-3.167,3.824c0,2.442,0.46,31.517,0.46,31.517s0.083,1.576-1.086,2.405
			c-1.176,0.822-11.886,8.017-11.886,8.017S33.873,74.254,37.455,77.784z M33.828,61.894c0,1.682-0.935,3.628-0.935,3.628
			s1.282-0.598,1.757-1.646c0.468-1.062,0.347-2.873,0.347-2.873s-0.46-22.647-0.46-24.458c0-1.779-1.071-0.92-1.071,0
			C33.465,37.503,33.828,60.182,33.828,61.894z M38.662,85.258c-8.922-2.563-20.754-8.764-24.126-24.939
			c-3.401-16.222,3.047-25.054,9.382-31.879c6.365-6.855,16.275-8.765,18.59-9.133c2.345-0.362,2.511,0.233,0,1.447
			c-1.78,0.875-8.583,4.751-12.361,13.53c-1.478,3.439-2.489,7.625-2.549,12.678c-0.196,13.944,2.685,19.353,2.685,19.353
			s0.694-0.46,1.29-1.749c0.573-1.282,0.347-1.75,0.392-3.296c0.038-1.517-0.045-23.666-0.045-24.956
			c0-0.664-0.03-1.109,0.136-1.546c0.159-0.407,0.49-0.814,1.192-1.389c1.44-1.146,12.112-10.642,14.57-12.526
			c2.458-1.84,3.213-2.504,5.076-5.204c1.863-2.669,1.863-4.487,1.863-4.487s20.642,3.333,28.975,25.054
			c5.785,15.068,0.347,30.823-10.445,40.644C62.486,86.684,47.591,87.867,38.662,85.258z M26.504,28.8
			c-0.588,0.536-12.911,12.053-10.694,27.625c2.858,20.113,17.323,24.678,17.776,24.812c-0.445-0.234-14.48-7.858-15.898-25.604
			C16.444,39.887,25.939,29.404,26.504,28.8z"/>
	</g>
</g>
<g>
	<path fill="#FFFFFF" d="M129.296,79.322c-10.387,0-18.538-7.672-18.538-19.898c0-12.944,8.55-20.537,19.179-20.537
		c11.106,0,18.619,8.071,18.619,19.818c0,14.384-9.988,20.617-19.18,20.617H129.296z M129.617,74.048
		c6.713,0,11.747-6.312,11.747-15.104c0-6.551-3.276-14.782-11.587-14.782c-8.23,0-11.826,7.673-11.826,15.024
		c0,8.471,4.793,14.861,11.586,14.861H129.617z"/>
	<path fill="#FFFFFF" d="M157.424,51.834c0-4.558-0.08-8.472-0.32-12.067h6.154l0.32,7.592h0.237
		c1.76-5.194,6.074-8.473,10.791-8.473c0.72,0,1.277,0.08,1.916,0.16v6.634c-0.719-0.08-1.438-0.16-2.397-0.16
		c-4.953,0-8.469,3.756-9.428,8.95c-0.16,1.037-0.242,2.156-0.242,3.277v20.695h-7.031V51.834z"/>
	<path fill="#FFFFFF" d="M190.903,57.505h0.162c0.959-1.355,2.236-3.033,3.357-4.394l11.426-13.345h8.392l-14.943,15.901
		l17.021,22.775h-8.551l-13.266-18.539l-3.598,3.995v14.544h-7.031V21.707h7.031V57.505L190.903,57.505z"/>
	<path fill="#FFFFFF" d="M222.709,50.235c0-4.077-0.08-7.274-0.319-10.469h6.233l0.397,6.313h0.16
		c1.92-3.598,6.394-7.194,12.787-7.194c5.354,0,13.664,3.197,13.664,16.462v23.096h-7.031V56.148c0-6.234-2.317-11.506-8.951-11.506
		c-4.555,0-8.149,3.274-9.43,7.191c-0.32,0.877-0.479,2.157-0.479,3.275v23.334h-7.031V50.235z"/>
	<path fill="#FFFFFF" d="M271.056,60.382c0.157,9.432,6.151,13.349,13.184,13.349c5.035,0,8.15-0.88,10.709-1.999l1.277,5.036
		c-2.478,1.117-6.793,2.476-12.945,2.476c-11.826,0-19.019-7.912-19.019-19.498c0-11.667,6.951-20.856,18.22-20.856
		c12.627,0,15.901,11.107,15.901,18.22c0,1.438-0.08,2.478-0.239,3.274L271.056,60.382L271.056,60.382z M291.59,55.348
		c0.08-4.477-1.838-11.426-9.668-11.426c-7.19,0-10.229,6.552-10.789,11.426H291.59z"/>
	<path fill="#FFFFFF" d="M315.562,30.497v9.27h10.069v5.353h-10.069v20.777c0,4.796,1.36,7.513,5.274,7.513
		c1.918,0,3.037-0.16,4.076-0.479l0.317,5.354c-1.356,0.48-3.516,0.959-6.231,0.959c-3.277,0-5.914-1.119-7.592-2.956
		c-1.919-2.158-2.718-5.594-2.718-10.149V45.119h-5.994v-5.353h5.994v-7.112L315.562,30.497z"/>
</g>
<g>
	<path fill="#FFFFFF" d="M222.087,8.725c1.185-0.179,2.592-0.312,4.133-0.312c2.793,0,4.781,0.647,6.099,1.876
		c1.341,1.229,2.122,2.971,2.122,5.406c0,2.458-0.759,4.468-2.166,5.853c-1.408,1.407-3.731,2.167-6.657,2.167
		c-1.386,0-2.547-0.067-3.53-0.179V8.725z M224.031,22.039c0.491,0.089,1.206,0.112,1.966,0.112c4.154,0,6.411-2.323,6.411-6.389
		c0.022-3.552-1.988-5.809-6.099-5.809c-1.006,0-1.765,0.09-2.278,0.201V22.039z"/>
	<path fill="#FFFFFF" d="M238.079,18.532c0.045,2.659,1.742,3.753,3.708,3.753c1.407,0,2.256-0.246,2.993-0.558l0.335,1.407
		c-0.692,0.313-1.876,0.67-3.597,0.67c-3.328,0-5.316-2.189-5.316-5.451c0-3.261,1.922-5.83,5.071-5.83
		c3.529,0,4.468,3.105,4.468,5.093c0,0.402-0.045,0.715-0.067,0.916H238.079z M243.843,17.125c0.021-1.251-0.515-3.194-2.726-3.194
		c-1.988,0-2.859,1.832-3.016,3.194H243.843z"/>
	<path fill="#FFFFFF" d="M247.905,21.57c0.581,0.38,1.608,0.782,2.592,0.782c1.43,0,2.1-0.715,2.1-1.608
		c0-0.938-0.559-1.452-2.011-1.988c-1.943-0.692-2.859-1.765-2.859-3.061c0-1.742,1.407-3.172,3.731-3.172
		c1.094,0,2.055,0.312,2.658,0.67l-0.492,1.43c-0.424-0.268-1.206-0.625-2.211-0.625c-1.162,0-1.81,0.67-1.81,1.475
		c0,0.894,0.647,1.295,2.055,1.832c1.877,0.715,2.837,1.653,2.837,3.262c0,1.898-1.474,3.239-4.043,3.239
		c-1.184,0-2.278-0.291-3.038-0.737L247.905,21.57z"/>
	<path fill="#FFFFFF" d="M259.207,9.731c0.022,0.67-0.47,1.207-1.251,1.207c-0.693,0-1.185-0.536-1.185-1.207
		c0-0.692,0.514-1.229,1.229-1.229C258.737,8.502,259.207,9.038,259.207,9.731z M257.018,23.581V12.769h1.966v10.812H257.018z"/>
	<path fill="#FFFFFF" d="M271.56,12.769c-0.045,0.782-0.09,1.653-0.09,2.971v6.277c0,2.479-0.491,3.999-1.541,4.937
		c-1.05,0.983-2.569,1.296-3.932,1.296c-1.296,0-2.726-0.313-3.597-0.894l0.491-1.497c0.715,0.447,1.832,0.849,3.172,0.849
		c2.011,0,3.485-1.05,3.485-3.775v-1.206h-0.045c-0.603,1.005-1.765,1.809-3.44,1.809c-2.68,0-4.602-2.278-4.602-5.271
		c0-3.664,2.391-5.741,4.87-5.741c1.876,0,2.904,0.983,3.373,1.876h0.045l0.089-1.631H271.56z M269.526,17.035
		c0-0.335-0.022-0.625-0.111-0.894c-0.357-1.139-1.318-2.078-2.748-2.078c-1.876,0-3.217,1.586-3.217,4.088
		c0,2.122,1.072,3.887,3.194,3.887c1.206,0,2.301-0.759,2.726-2.01c0.111-0.335,0.156-0.715,0.156-1.05V17.035z"/>
	<path fill="#FFFFFF" d="M274.595,15.695c0-1.117-0.022-2.033-0.09-2.926h1.743l0.111,1.787h0.045
		c0.536-1.028,1.787-2.033,3.574-2.033c1.496,0,3.819,0.894,3.819,4.602v6.456h-1.966v-6.232c0-1.743-0.647-3.194-2.502-3.194
		c-1.295,0-2.301,0.916-2.636,2.01c-0.089,0.246-0.134,0.581-0.134,0.916v6.5h-1.966V15.695z"/>
	<path fill="#FFFFFF" d="M288.085,18.532c0.045,2.659,1.742,3.753,3.708,3.753c1.407,0,2.256-0.246,2.993-0.558l0.335,1.407
		c-0.692,0.313-1.876,0.67-3.597,0.67c-3.328,0-5.316-2.189-5.316-5.451c0-3.261,1.922-5.83,5.071-5.83
		c3.529,0,4.468,3.105,4.468,5.093c0,0.402-0.045,0.715-0.067,0.916H288.085z M293.849,17.125c0.021-1.251-0.515-3.194-2.726-3.194
		c-1.988,0-2.859,1.832-3.016,3.194H293.849z"/>
	<path fill="#FFFFFF" d="M307.517,7.72v13.068c0,0.96,0.021,2.055,0.089,2.792h-1.765l-0.09-1.876h-0.044
		c-0.604,1.207-1.921,2.122-3.687,2.122c-2.613,0-4.624-2.211-4.624-5.495c-0.022-3.597,2.212-5.808,4.848-5.808
		c1.653,0,2.771,0.782,3.262,1.653h0.045V7.72H307.517z M305.551,17.17c0-0.246-0.022-0.581-0.09-0.827
		c-0.29-1.251-1.362-2.279-2.837-2.279c-2.033,0-3.239,1.787-3.239,4.178c0,2.189,1.072,3.999,3.194,3.999
		c1.318,0,2.524-0.871,2.882-2.346c0.067-0.268,0.09-0.536,0.09-0.849V17.17z"/>
	<path fill="#FFFFFF" d="M315.421,23.581c0.045-0.737,0.09-1.832,0.09-2.792V7.72h1.943v6.791h0.045
		c0.692-1.207,1.943-1.988,3.686-1.988c2.681,0,4.58,2.234,4.558,5.518c0,3.865-2.436,5.786-4.848,5.786
		c-1.563,0-2.815-0.603-3.619-2.033h-0.067l-0.089,1.787H315.421z M317.454,19.247c0,0.246,0.045,0.492,0.09,0.715
		c0.379,1.363,1.519,2.301,2.948,2.301c2.056,0,3.284-1.675,3.284-4.155c0-2.167-1.117-4.021-3.217-4.021
		c-1.341,0-2.592,0.916-2.994,2.413c-0.044,0.224-0.111,0.492-0.111,0.804V19.247z"/>
	<path fill="#FFFFFF" d="M328.777,12.769l2.368,6.389c0.245,0.715,0.514,1.563,0.692,2.211h0.044
		c0.201-0.648,0.425-1.475,0.693-2.256l2.145-6.344h2.077l-2.948,7.707c-1.408,3.708-2.368,5.607-3.709,6.769
		c-0.96,0.849-1.921,1.184-2.412,1.273l-0.492-1.653c0.492-0.156,1.14-0.469,1.721-0.96c0.536-0.424,1.206-1.184,1.653-2.189
		c0.089-0.201,0.156-0.357,0.156-0.469c0-0.112-0.045-0.268-0.134-0.514l-3.999-9.963H328.777z"/>
</g>
</svg>
