<?xml version="1.0" encoding="utf-8"?>
<!-- Generator: Adobe Illustrator 16.0.4, SVG Export Plug-In . SVG Version: 6.00 Build 0)  -->
<!DOCTYPE svg PUBLIC "-//W3C//DTD SVG 1.1//EN" "http://www.w3.org/Graphics/SVG/1.1/DTD/svg11.dtd">
<svg version="1.1" xmlns="http://www.w3.org/2000/svg" xmlns:xlink="http://www.w3.org/1999/xlink" x="0px" y="0px"
	 width="4423.485px" height="762.345px" viewBox="0 0 4423.485 762.345" enable-background="new 0 0 4423.485 762.345"
	 xml:space="preserve">
<g id="abstract">
	<g>
		<linearGradient id="SVGID_1_" gradientUnits="userSpaceOnUse" x1="210.9961" y1="101.7603" x2="631.0391" y2="689.8199">
			<stop  offset="0" style="stop-color:#960000"/>
			<stop  offset="1" style="stop-color:#FF0000"/>
		</linearGradient>
		<path fill="url(#SVGID_1_)" d="M695.495,208.387c30.546,46.944,48.099,106.085,46.733,170.352
			c-3.241,152.653-111.973,276.403-242.858,276.403c-50.926,0-97.699-18.74-135.654-50.624c1.478,0.021,2.958,0.032,4.44,0.032
			c5.174,0,10.315-0.139,15.429-0.384c28.524,20.711,66.882,33.4,109.071,33.4c71.869,0,132.629-36.808,152.57-87.403
			c-25.447,33.403-68.742,55.403-117.834,55.403c-41.515,0-78.82-15.73-104.651-40.786c-17.666,3.446-35.911,5.271-54.585,5.271
			c-115.02,0-214.04-68.502-258.492-166.933c-0.167,3.251-0.301,6.511-0.379,9.784c-4.432,185.974,137.023,336.733,315.946,336.733
			c178.926,0,327.564-150.76,331.997-336.733C759.062,335.975,735.914,265.086,695.495,208.387z"/>
	</g>
	<linearGradient id="SVGID_2_" gradientUnits="userSpaceOnUse" x1="222.9385" y1="93.2295" x2="642.9819" y2="681.2898">
		<stop  offset="0" style="stop-color:#960000"/>
		<stop  offset="1" style="stop-color:#FF0000"/>
	</linearGradient>
	<circle fill-rule="evenodd" clip-rule="evenodd" fill="url(#SVGID_2_)" cx="364.497" cy="291.41" r="264.737"/>
	<linearGradient id="SVGID_3_" gradientUnits="userSpaceOnUse" x1="407.3311" y1="-38.479" x2="827.3735" y2="549.58">
		<stop  offset="0" style="stop-color:#960000"/>
		<stop  offset="1" style="stop-color:#FF0000"/>
	</linearGradient>
	<path fill-rule="evenodd" clip-rule="evenodd" fill="url(#SVGID_3_)" d="M567.039,100.663
		C537.102,4.132,458.166-18.072,372.375,13.291C449.058,15.424,517.975,48.584,567.039,100.663z"/>
	<linearGradient id="SVGID_4_" gradientUnits="userSpaceOnUse" x1="100.6738" y1="180.562" x2="520.7151" y2="768.6194">
		<stop  offset="0" style="stop-color:#960000"/>
		<stop  offset="1" style="stop-color:#FF0000"/>
	</linearGradient>
	<path fill-rule="evenodd" clip-rule="evenodd" fill="url(#SVGID_4_)" d="M443.556,385.064
		C435.156,248.928,294.49,64.233,317.49,31.233C167.757,56.672,43.264,172.167,26.146,306.003
		c-1.095,8.562-3.016,16.815-4.026,25.035c0.227-60.816,13.607-156.337,85.398-221.941C37.32,159.259-6.653,264.071,0.825,385.248
		c7.667,124.248,67.299,231.256,146.616,279.759C121.273,633.99,95.466,588.16,77.402,537
		c-33.05-93.598-27.674-169.591,12.005-169.738c24.801-0.092,57.133,29.465,85.962,74.496
		C192.668,468.777,454.039,554.935,443.556,385.064z"/>
</g>
<g id="ball">
	<g>

			<linearGradient id="SVGID_5_" gradientUnits="userSpaceOnUse" x1="268.4092" y1="-39.04" x2="435.3636" y2="677.7522" gradientTransform="matrix(0.9968 0.0795 -0.0795 0.9968 49.4156 5.8221)">
			<stop  offset="0" style="stop-color:#212121"/>
			<stop  offset="1" style="stop-color:#212121"/>
		</linearGradient>
		<path fill="url(#SVGID_5_)" d="M605.543,308.075c-10.581,132.692-126.724,231.684-259.42,221.104
			C213.429,518.593,114.439,402.449,125.02,269.755C135.601,137.063,251.749,38.074,384.438,48.654
			C517.139,59.238,616.126,175.382,605.543,308.075z"/>
		<path fill="#FFFFFF" d="M542.696,118.171c-93.923-99.94-249.873-105.94-348.336-13.408
			c-98.461,92.534-102.144,248.558-8.224,348.502c93.923,99.937,249.879,105.936,348.338,13.403
			C632.937,374.13,636.615,218.106,542.696,118.171z M528.886,458.848c-93.897,88.246-241.562,83.665-329.809-10.237
			c-88.248-93.896-83.664-241.561,10.239-329.808c51.551-48.448,119.299-68.907,184.526-61.98
			c-7.557,1.165-12.839,3.874-14.453,8.051c-3.854,10.003,14.792,24.603,41.646,32.609c26.858,7.998,51.754,6.382,55.612-3.625
			c1.847-4.782-1.465-10.617-8.355-16.285c25.924,12.165,50.025,29.33,70.831,51.469
			C627.368,222.942,622.79,370.595,528.886,458.848z"/>
		<path fill="#FFFFFF" d="M389.059,286.736c13.65-60.909,67.665-100.662,120.64-88.792c52.982,11.87,84.863,70.874,71.215,131.786
			c-13.648,60.911-67.663,100.671-120.645,88.797C407.291,406.656,375.405,347.654,389.059,286.736z"/>
		<path d="M548.848,257.398c-2.696-10.384-8.288-17.92-16.785-22.594c-8.497-4.685-17.383-5.119-26.642-1.321
			c-9.264,3.799-16.218,10.749-20.862,20.839c-5.569,12.088-6.057,24.001-1.468,35.749c-7.728,0.744-14.885,3.593-21.482,8.549
			c-6.814,5.152-12.147,11.903-15.989,20.25c-5.765,12.53-6.976,25.271-3.635,38.236c3.337,12.974,10.27,22.353,20.8,28.156
			c10.474,5.771,21.464,6.26,32.98,1.473c11.519-4.787,20.16-13.44,25.929-25.968c3.839-8.346,5.624-17.05,5.351-26.103
			c-0.281-8.751-2.458-16.741-6.509-23.97c11.36-2.96,19.823-10.479,25.392-22.569C550.574,278.032,551.542,267.791,548.848,257.398
			z M503.552,350.779c-3.505,7.602-8.423,13.014-14.772,16.23c-6.347,3.216-12.259,3.322-17.733,0.309
			c-5.476-3.016-8.93-8.28-10.373-15.791c-1.443-7.51-0.411-15.063,3.09-22.664c3.468-7.542,8.377-12.924,14.724-16.14
			c6.354-3.218,12.295-3.31,17.817-0.268c5.471,3.02,8.923,8.258,10.351,15.723C508.092,335.651,507.049,343.183,503.552,350.779z
			 M527.743,278.227c-2.38,5.172-5.637,8.908-9.76,11.204c-4.13,2.295-7.915,2.495-11.351,0.603
			c-3.492-1.922-5.63-5.382-6.396-10.378c-0.776-4.994,0.029-10.078,2.408-15.247c2.389-5.17,5.631-8.891,9.749-11.154
			c4.114-2.268,7.915-2.438,11.405-0.512c3.489,1.925,5.624,5.357,6.373,10.306C530.936,268.003,530.132,273.063,527.743,278.227z"
			/>
	</g>
	<text transform="matrix(1 0 0 1 824.8281 604.7949)" font-family="'Montserrat-Bold'" font-size="592.2767">Pool Scores</text>
</g>
</svg>
